<svg width="50" height="50" viewBox="0 0 50 50" fill="none" xmlns="http://www.w3.org/2000/svg">
<path d="M0 0H30C41.0457 0 50 8.95431 50 20V30C50 41.0457 41.0457 50 30 50H0V0Z" fill="#5D75FC"/>
<path d="M32.6 34L26.3 27.7C25.8 28.1 25.225 28.4167 24.575 28.65C23.925 28.8833 23.2333 29 22.5 29C20.6833 29 19.146 28.3707 17.888 27.112C16.63 25.8533 16.0007 24.316 16 22.5C16 20.6833 16.6293 19.146 17.888 17.888C19.1467 16.63 20.684 16.0007 22.5 16C24.3167 16 25.854 16.6293 27.112 17.888C28.37 19.1467 28.9993 20.684 29 22.5C29 23.2333 28.8833 23.925 28.65 24.575C28.4167 25.225 28.1 25.8 27.7 26.3L34 32.6L32.6 34ZM22.5 27C23.75 27 24.8127 26.5623 25.688 25.687C26.5633 24.8117 27.0007 23.7493 27 22.5C27 21.25 26.5623 20.1873 25.687 19.312C24.8117 18.4367 23.7493 17.9993 22.5 18C21.25 18 20.1873 18.4377 19.312 19.313C18.4367 20.1883 17.9993 21.2507 18 22.5C18 23.75 18.4377 24.8127 19.313 25.688C20.1883 26.5633 21.2507 27.0007 22.5 27Z" fill="black"/>
</svg>
