<svg width="50" height="70" viewBox="0 0 50 70" fill="none" xmlns="http://www.w3.org/2000/svg">
<path d="M0 0H30C41.0457 0 50 8.95431 50 20V50C50 61.0457 41.0457 70 30 70H0V0Z" fill="#5D75FC"/>
<path d="M32.6 44L26.3 37.7C25.8 38.1 25.225 38.4167 24.575 38.65C23.925 38.8833 23.2333 39 22.5 39C20.6833 39 19.146 38.3707 17.888 37.112C16.63 35.8533 16.0007 34.316 16 32.5C16 30.6833 16.6293 29.146 17.888 27.888C19.1467 26.63 20.684 26.0007 22.5 26C24.3167 26 25.854 26.6293 27.112 27.888C28.37 29.1467 28.9993 30.684 29 32.5C29 33.2333 28.8833 33.925 28.65 34.575C28.4167 35.225 28.1 35.8 27.7 36.3L34 42.6L32.6 44ZM22.5 37C23.75 37 24.8127 36.5623 25.688 35.687C26.5633 34.8117 27.0007 33.7493 27 32.5C27 31.25 26.5623 30.1873 25.687 29.312C24.8117 28.4367 23.7493 27.9993 22.5 28C21.25 28 20.1873 28.4377 19.312 29.313C18.4367 30.1883 17.9993 31.2507 18 32.5C18 33.75 18.4377 34.8127 19.313 35.688C20.1883 36.5633 21.2507 37.0007 22.5 37Z" fill="black"/>
</svg>
