<svg width="35" height="35" viewBox="0 0 35 35" fill="none" xmlns="http://www.w3.org/2000/svg">
<path d="M30.3241 24.0543C29.5653 22.7473 28.4374 19.049 28.4374 14.2188C28.4374 11.3179 27.285 8.53595 25.2339 6.48477C23.1827 4.43359 20.4007 3.28125 17.4999 3.28125C14.5991 3.28125 11.8171 4.43359 9.7659 6.48477C7.71472 8.53595 6.56238 11.3179 6.56238 14.2188C6.56238 19.0504 5.43308 22.7473 4.67429 24.0543C4.48052 24.3866 4.3778 24.7641 4.37648 25.1487C4.37516 25.5334 4.47529 25.9116 4.66677 26.2452C4.85826 26.5788 5.13432 26.856 5.46713 27.0489C5.79994 27.2418 6.17772 27.3435 6.56238 27.3438H12.1419C12.3942 28.5785 13.0653 29.6883 14.0416 30.4852C15.0179 31.2822 16.2396 31.7175 17.4999 31.7175C18.7602 31.7175 19.9818 31.2822 20.9581 30.4852C21.9345 29.6883 22.6055 28.5785 22.8579 27.3438H28.4374C28.8219 27.3432 29.1995 27.2414 29.5321 27.0484C29.8648 26.8554 30.1406 26.5782 30.332 26.2446C30.5233 25.911 30.6233 25.5329 30.6219 25.1484C30.6205 24.7639 30.5178 24.3865 30.3241 24.0543ZM17.4999 29.5312C16.8215 29.531 16.1599 29.3206 15.606 28.9288C15.0522 28.5371 14.6334 27.9833 14.4073 27.3438H20.5925C20.3663 27.9833 19.9475 28.5371 19.3937 28.9288C18.8399 29.3206 18.1783 29.531 17.4999 29.5312ZM6.56238 25.1562C7.61511 23.3461 8.74988 19.1516 8.74988 14.2188C8.74988 11.8981 9.67175 9.67251 11.3127 8.03157C12.9536 6.39062 15.1792 5.46875 17.4999 5.46875C19.8205 5.46875 22.0461 6.39062 23.6871 8.03157C25.328 9.67251 26.2499 11.8981 26.2499 14.2188C26.2499 19.1475 27.3819 23.342 28.4374 25.1562H6.56238Z" fill="black"/>
</svg>
